<svg width="16" height="16" version="1.1" xmlns="http://www.w3.org/2000/svg">
<path d="m10 8c-1.31 0-2.4 0.86-2.81 2.03-1.23 0.16-2.19 1.2-2.19 2.47 0 1.38 1.12 2.5 2.5 2.5h5c1.38 0 2.5-1.12 2.5-2.5 0-1.27-0.96-2.31-2.19-2.47-0.4-1.17-1.5-2.03-2.81-2.03z" fill="#666" opacity=".35"/>
<path d="M 8,0 C 5.93,0 4.1702,1.2705 3.4102,3.0605 1.4802,3.3505 0,4.99 0,7 0,9.21 1.79,11 4,11 H 4.3945 C 4.8388,10.204 5.6169,9.6129 6.5234,9.3223 7.1696,8.0017 8.4228,7 10,7 11.573,7 12.83,7.9972 13.473,9.3203 13.983,9.4834 14.453,9.7437 14.848,10.08 15.551,9.4395 16,8.5242 16,7.5 16,5.7 14.65,4.2293 12.91,4.0293 12.45,1.7393 10.43,0 8,0 Z" fill="#666" opacity=".35"/>
</svg>
