<svg width="16" height="16" version="1.1" xmlns="http://www.w3.org/2000/svg">
<path d="M 8,0 C 5.93,0 4.17,1.27 3.41,3.06 1.48,3.35 0,4.99 0,7 0,9.21 1.79,11 4,11 H 12.5 C 14.43,11 16,9.43 16,7.5 16,5.7 14.65,4.23 12.91,4.03 12.45,1.74 10.43,0 8,0 Z" fill="#666" opacity=".35"/>
<path d="m2.9766 11.994a0.5 0.5 0 0 0-0.4239 0.283l-1 2a0.5 0.5 0 1 0 0.8946 0.446l1-2a0.5 0.5 0 0 0-0.4707-0.729zm2.5 0a0.5 0.5 0 0 0-0.4239 0.283l-1 2a0.5 0.5 0 1 0 0.8946 0.446l1-2a0.5 0.5 0 0 0-0.4707-0.729zm2.5 0a0.5 0.5 0 0 0-0.4239 0.283l-1 2a0.5 0.5 0 1 0 0.8946 0.446l1-2a0.5 0.5 0 0 0-0.4707-0.729zm2.5004 0a0.5 0.5 0 0 0-0.424 0.283l-1.0003 2a0.5 0.5 0 1 0 0.8946 0.446l0.9997-2a0.5 0.5 0 0 0-0.47-0.729zm2.5 0a0.5 0.5 0 0 0-0.424 0.283l-1 2a0.5 0.5 0 1 0 0.894 0.446l1-2a0.5 0.5 0 0 0-0.47-0.729z" fill="#666" opacity=".35"/>
</svg>
