<svg width="48" height="48" version="1" xmlns="http://www.w3.org/2000/svg">
<path d="m24 4c-7.756 0-14 6.244-14 14v12c0 7.756 6.244 14 14 14s14-6.244 14-14v-12c0-7.756-6.244-14-14-14zm-1 4.5859 9.4414 9.4414-6.9727 6.4727 6.9727 6.4727-9.4414 9.4414v-13.621l-5.3203 4.9395-0.73242 0.68164-1.3613-1.4668 0.73437-0.67969 6.2109-5.7676-6.2109-5.7676-0.73437-0.67969 1.3613-1.4668 0.73242 0.68164 5.3203 4.9395v-13.621zm2 4.8281v8.793l4.5605-4.2324-4.5605-4.5605zm0 13.379v8.793l4.5605-4.5605-4.5605-4.2324z" fill="#666" opacity=".3"/>
</svg>
