<svg width="48" height="48" version="1" xmlns="http://www.w3.org/2000/svg">
<path d="m5.9999 7c-1.108 0-2 0.892-2 2v32c0 1.108 0.892 2 2 2h22l16-16v-18c0-1.108-0.892-2-2-2z" opacity=".2"/>
<path d="m5.9999 6c-1.108 0-2 0.892-2 2v32c0 1.108 0.892 2 2 2h22l16-16v-18c0-1.108-0.892-2-2-2z" fill="#e4e4e4"/>
<path d="m44 26h-14c-1.105 0-2 0.895-2 2v14z" fill="#fafafa"/>
<path d="m30 26c-1.105 0-2 0.895-2 2v1c0-1.105 0.895-2 2-2h13l1-1z" fill="#fff" opacity=".2"/>
<path d="m6 6c-1.108 0-2 0.892-2 2v1c0-1.108 0.892-2 2-2h36c1.108 0 2 0.892 2 2v-1c0-1.108-0.892-2-2-2z" fill="#fff" opacity=".2"/>
</svg>
