<svg width="48" height="48" version="1" xmlns="http://www.w3.org/2000/svg">
<path d="m7 7s-3 0-3 3v24s0 3 3 3h5l4 4h16l4-4h5s3 0 3-3v-24c0-3-3-3-3-3z" fill="#e4e4e4"/>
<path d="m10 14h28v18h-4.484l-4 4h-11.031l-4-4h-4.4854z" fill="#fff" opacity=".4"/>
<path d="m10 13h28v18h-4.484l-4 4h-11.031l-4-4h-4.4854z" fill="#5d5d5d"/>
<path d="m7 7s-3 0-3 3v1c0-3 3-3 3-3h34s3 0 3 3v-1c0-3-3-3-3-3z" fill="#fff" opacity=".1"/>
<path d="m4 34v1s0 3 3 3h5l4 4h16l4-4h5s3 0 3-3v-1c0 3-3 3-3 3h-5l-4 4h-16l-4-4h-5c-3 0-3-3-3-3z" opacity=".2"/>
<circle cx="37" cy="35" r="10" fill="#ffd453"/>
<path d="M 46.979,35.414 A 10,10 0 0 1 37,45 10,10 0 0 1 27.021,35.586 10,10 0 0 0 27,36 10,10 0 0 0 37,46 10,10 0 0 0 47,36 10,10 0 0 0 46.979,35.414 Z" opacity=".2"/>
<g fill="#fff">
<rect transform="rotate(-90)" x="-41" y="38" width="12" height="2"/>
<rect transform="rotate(-90)" x="-41" y="34" width="12" height="2"/>
</g>
</svg>
