<svg width="48" height="48" version="1.1" xmlns="http://www.w3.org/2000/svg">
<defs>
<style id="current-color-scheme" type="text/css">.ColorScheme-Text { color:#ffffff; } .ColorScheme-Highlight { color:#4285f4; } .ColorScheme-NeutralText { color:#ff9800; } .ColorScheme-PositiveText { color:#4caf50; } .ColorScheme-NegativeText { color:#f44336; }</style>
</defs>
<path class="ColorScheme-Text" d="m24 6c-1.108 0-2 0.892-2 2v4.1836a12 12 0 0 1 4-0.0039v-4.1797c0-1.108-0.892-2-2-2zm-11.312 4.6836c-0.51124 0-1.0223 0.19811-1.4141 0.58984-0.78348 0.78347-0.78348 2.0446 0 2.8281l4.3867 4.3867a10 10 0 0 0 1.2695 12.582 10 10 0 0 0 12.574 1.2617l4.3945 4.3945c0.78347 0.78347 2.0446 0.78347 2.8281 0s0.78347-2.0446 0-2.8281l-22.625-22.625c-0.39174-0.39174-0.90282-0.58984-1.4141-0.58984zm22.625 0c-0.51124 0-1.0223 0.19811-1.4141 0.58984l-2.957 2.957a12 12 0 0 1 1.543 1.2852 12 12 0 0 1 1.293 1.5352l2.9492-2.9492c0.78347-0.78347 0.78347-2.0446 0-2.8281-0.39174-0.39174-0.90282-0.58984-1.4141-0.58984zm-11.457 3.3164a10 10 0 0 0-2.6484 0.41797l12.379 12.383a10 10 0 0 0-2.5156-9.8711 10 10 0 0 0-7.2148-2.9297zm-15.855 8c-1.108 0-2 0.892-2 2s0.892 2 2 2h4.1836a12 12 0 0 1-0.0039-4zm27.816 0a12 12 0 0 1 4e-3 4h4.1796c1.108 0 2-0.892 2-2s-0.892-2-2-2zm-21.594 8.9492-2.9492 2.9492c-0.78348 0.78347-0.78348 2.0446 0 2.8281 0.78347 0.78347 2.0446 0.78347 2.8281 0l2.957-2.957a12 12 0 0 1-1.543-1.2852 12 12 0 0 1-1.293-1.5352zm11.777 4.8672a12 12 0 0 1-4 4e-3v4.1796c0 1.108 0.892 2 2 2s2-0.892 2-2z" fill="#ffffff" opacity=".3" stroke-width="2"/>
</svg>
