<svg width="48" height="48" version="1.1" xmlns="http://www.w3.org/2000/svg">
<path d="m43.994 24.488a20 20 0 0 1-19.994 19.512 20 20 0 0 1-19.994-19.488 20 20 0 0 0-0.0058594 0.48828 20 20 0 0 0 20 20 20 20 0 0 0 20-20 20 20 0 0 0-0.005859-0.51172z" opacity=".2"/>
<circle cx="24" cy="24" r="20" fill="#64db2d"/>
<path d="m11 28.222 7.7782 7.7782 18.385-18.385-3.5355-3.5355-14.849 14.849-4.2426-4.2426z" opacity=".2"/>
<path d="m11 27.222 7.7782 7.7782 18.385-18.385-3.5355-3.5355-14.849 14.849-4.2426-4.2426-3.5355 3.5355z" fill="#fff"/>
<path d="m24 4a20 20 0 0 0-20 20 20 20 0 0 0 0.0058594 0.51172 20 20 0 0 1 19.994-19.512 20 20 0 0 1 19.994 19.488 20 20 0 0 0 0.005859-0.48828 20 20 0 0 0-20-20z" fill="#fff" opacity=".2"/>
</svg>
