<svg width="16" height="16" version="1.1" xmlns="http://www.w3.org/2000/svg">
 <path id="XMLID_9_" d="m8 0c-4.4165 0-7.9971 3.5852-7.9971 8.0072 0 4.4228 3.5806 8.0072 7.9971 8.0072 4.4172 0 7.9971-3.5845 7.9971-8.0072 0-4.4221-3.5799-8.0072-7.9971-8.0072zm0 1.3654c3.6641 0 6.6335 2.9732 6.6335 6.6419 0 0.56426-0.07688 1.1088-0.20916 1.6319l-3.1551-3.5113-4.0339 4.5952 1.9463-3.8989-0.97248-1.7407-5.7344 6.5984c-0.69957-1.0526-1.1083-2.3156-1.1083-3.6745 0-3.6687 2.9694-6.6419 6.6335-6.6419z" fill="#444" stroke-width=".69584"/>
</svg>
