<svg width="24" height="24" version="1" xmlns="http://www.w3.org/2000/svg">
<rect transform="matrix(0,-1,-1,0,0,0)" x="-22" y="-22" width="20" height="20" rx="10" ry="10" fill="#64db2d"/>
<path d="m12 2c-5.54 0-10 4.46-10 10 0 0.084 4e-3 0.166 0.0058 0.25 0.1324-5.423 4.5382-9.75 9.9942-9.75 5.4558 0 9.862 4.327 9.994 9.75 2e-3 -0.08343 0.0059-0.16606 0.0059-0.25 0-5.54-4.46-10-10-10z" fill="#fff" opacity=".2"/>
<path d="m2.0058 12.25c-2e-3 0.084-0.0058 0.166-0.0058 0.25 0 5.54 4.46 10 10 10s10-4.46 10-10c0-0.084-4e-3 -0.1665-6e-3 -0.25-0.132 5.423-4.538 9.75-9.994 9.75s-9.862-4.327-9.994-9.75z" opacity=".3"/>
<g transform="translate(4.0005 5.0005)" opacity=".3">
<path class="ColorScheme-Text" d="m13.5 5s0.965-0.965 0.215-1.715-1.715 0.215-1.715 0.215l-6 7-2-2s-0.965-0.965-1.715-0.215 0.215 1.715 0.215 1.715l3.5 3.5z" fill="currentColor"/>
</g>
<g transform="translate(4.0005 4.0005)" fill="#fff">
<path class="ColorScheme-Text" d="m13.5 5s0.965-0.965 0.215-1.715-1.715 0.215-1.715 0.215l-6 7-2-2s-0.965-0.965-1.715-0.215 0.215 1.715 0.215 1.715l3.5 3.5z" fill="#fff"/>
</g>
</svg>
