<svg width="16" height="16" version="1.1" xmlns="http://www.w3.org/2000/svg">
 <path d="m5 2v1h1l-2 9h-1v1h3v-1h-0.911l0.911-4h3v1h1v-3h-1v1h-2.779l1-4h4.78v1h1v-2z" fill="#444"/>
 <path d="m9 10v1c0 0.277 0.112 0.526 0.293 0.707l0.793 0.793-0.793 0.793a0.996 0.996 0 0 0-0.293 0.707v1h1a0.996 0.996 0 0 0 0.707-0.293l0.793-0.793 0.793 0.793c0.18 0.18 0.43 0.293 0.707 0.293h1v-1a0.996 0.996 0 0 0-0.293-0.707l-0.793-0.793 0.793-0.793c0.181-0.18 0.293-0.43 0.293-0.707v-1h-1a0.996 0.996 0 0 0-0.707 0.293l-0.793 0.793-0.793-0.793a0.996 0.996 0 0 0-0.707-0.293z" color="#000000" fill="#444" fill-rule="evenodd" font-family="sans-serif" font-weight="400" overflow="visible" style="isolation:auto;mix-blend-mode:normal;text-decoration-color:#000000;text-decoration-line:none;text-decoration-style:solid;text-indent:0;text-transform:none" white-space="normal"/>
</svg>
