<svg width="32" height="32" version="1" xmlns="http://www.w3.org/2000/svg">
<path d="m 6.375,6 h 19.25 C 26.38675,6 27,6.5575 27,7.25 v 22.5 C 27,30.4425 26.38675,31 25.625,31 H 6.375 C 5.61325,31 5,30.4425 5,29.75 V 7.25 C 5,6.5575 5.61325,6 6.375,6 Z" opacity=".2"/>
<path d="m 6.375,5 h 19.25 C 26.38675,5 27,5.5575 27,6.25 v 22.5 C 27,29.4425 26.38675,30 25.625,30 H 6.375 C 5.61325,30 5,29.4425 5,28.75 V 6.25 C 5,5.5575 5.61325,5 6.375,5 Z" fill="#4f4f4f"/>
<rect x="9" y="2" width="14" height="3" fill="#8e8e8e"/>
<path d="m8 9v5h16v-5zm0 7v5h16v-5zm0 7v5h16v-5z" opacity=".2"/>
<path d="m9 2v1h14v-1z" fill="#fff" opacity=".2"/>
<g transform="translate(1)">
<circle cx="24" cy="24" r="7" fill="#db3c30"/>
<path d="M 30.977,24.459 A 7,7 0 0 1 24,31 7,7 0 0 1 17.023,24.541 7,7 0 0 0 17,25 a 7,7 0 0 0 7,7 7,7 0 0 0 7,-7 7,7 0 0 0 -0.02344,-0.54102 z" opacity=".2"/>
<g transform="matrix(.70711 -.70711 .70711 .70711 -9.9411 24)" fill="#fff">
<rect x="20" y="23" width="8" height="2"/>
<rect transform="rotate(90)" x="20" y="-25" width="8" height="2"/>
</g>
</g>
</svg>
