<svg width="32" height="32" version="1" xmlns="http://www.w3.org/2000/svg">
<path d="m3.4999 5c-0.831 0-1.5 0.669-1.5 1.5v21c0 0.831 0.669 1.5 1.5 1.5h16.5l10-10v-12.5c0-0.831-0.669-1.5-1.5-1.5z" opacity=".2"/>
<path d="m3.4999 4c-0.831 0-1.5 0.669-1.5 1.5v21c0 0.831 0.669 1.5 1.5 1.5h16.5l10-10v-12.5c0-0.831-0.669-1.5-1.5-1.5z" fill="#e4e4e4"/>
<path d="m30 18h-8.5c-0.828 0-1.5 0.672-1.5 1.5v8.5z" fill="#fafafa"/>
<path d="m21.5 18c-0.828 0-1.5 0.672-1.5 1.5v1c0-0.828 0.672-1.5 1.5-1.5h7.5l1-1z" fill="#fff" opacity=".2"/>
<path d="m3.5 4c-0.831 0-1.5 0.669-1.5 1.5v1c0-0.831 0.669-1.5 1.5-1.5h25c0.831 0 1.5 0.669 1.5 1.5v-1c0-0.831-0.669-1.5-1.5-1.5z" fill="#fff" opacity=".2"/>
</svg>
