<svg width="32" height="32" version="1" xmlns="http://www.w3.org/2000/svg">
<rect transform="matrix(0,-1,-1,0,0,0)" x="-23" y="-30" width="12" height="28" rx="1.412" ry="1.4" opacity=".2"/>
<path d="m5 19v10.588c0 0.78212 0.61325 1.4118 1.375 1.4118h19.25c0.76175 0 1.375-0.62965 1.375-1.4118v-10.588h-22z" opacity=".2"/>
<path d="m6.375 2c-0.76175 0-1.375 0.63714-1.375 1.4286v8.5714h22v-8.5714c0-0.79143-0.61325-1.4286-1.375-1.4286h-19.25z" fill="#e4e4e4"/>
<rect transform="matrix(0,-1,-1,0,0,0)" x="-22" y="-30" width="12" height="28" rx="1.412" ry="1.4" fill="#4f4f4f"/>
<rect x="4" y="17" width="24" height="2" opacity=".2"/>
<rect x="4" y="13" width="3" height="3" rx="1.125" ry="1.125" opacity=".2"/>
<rect x="4" y="12" width="3" height="3" rx="1.125" ry="1.125" fill="#76ff03"/>
<path d="m5 18v10.588c0 0.78212 0.61325 1.4118 1.375 1.4118h19.25c0.76175 0 1.375-0.62965 1.375-1.4118v-10.588h-22z" fill="#e4e4e4"/>
<path d="m8 26h14v2h-14z" fill-rule="evenodd" opacity=".5"/>
<path d="m8 23h11v2h-11z" fill-rule="evenodd" opacity=".5"/>
<path d="m8 20h16v2h-16z" fill-rule="evenodd" opacity=".5"/>
<path d="m5.125 12c-0.62325 0-1.125 0.50175-1.125 1.125v0.75c0 0.044347 0.020447 0.082021 0.025391 0.125 0.064534-0.56106 0.52071-1 1.0996-1h0.75c0.5789 0 1.0351 0.43894 1.0996 1 0.0049436-0.042979 0.025391-0.080653 0.025391-0.125v-0.75c0-0.62325-0.50175-1.125-1.125-1.125h-0.75z" fill="#fff" opacity=".2"/>
<path d="m3.4004 10c-0.7756 0-1.4004 0.62999-1.4004 1.4121v1c0-0.78212 0.62479-1.4121 1.4004-1.4121h25.199c0.7756 0 1.4004 0.62999 1.4004 1.4121v-1c0-0.78212-0.62479-1.4121-1.4004-1.4121h-25.199z" fill="#fff" opacity=".1"/>
<path d="m6.375 2c-0.76175 0-1.375 0.63631-1.375 1.4277v1c0-0.79143 0.61325-1.4277 1.375-1.4277h19.25c0.76175 0 1.375 0.63631 1.375 1.4277v-1c0-0.79143-0.61325-1.4277-1.375-1.4277h-19.25z" fill="#fff" opacity=".2"/>
<circle cx="25" cy="25" r="7" opacity=".3"/>
<circle cx="25" cy="24" r="7" fill="#cd4242"/>
<circle cx="25" cy="27" r="1" fill="#fff"/>
<path d="m24 25h2v-5h-2z" fill="#fff" fill-rule="evenodd"/>
</svg>
