<svg width="16" height="16" version="1.1" xmlns="http://www.w3.org/2000/svg">
 <path d="m7.68 2e-3a8.481 8.481 0 0 0-5.683 2.017 0.50014 0.50014 0 1 0 0.648 0.762 7.493 7.493 0 0 1 9.948 0.212 0.5 0.5 0 1 0 0.68-0.733 8.48 8.48 0 0 0-5.592-2.258zm-0.18 1.996a6.5 6.5 0 0 0-6.5 6.47 0.5 0.5 0 0 0 0 0.025 0.5 0.5 0 0 0 0 5e-3 0.5 0.5 0 0 0 0 3e-3 0.5 0.5 0 0 0 0 3e-3v0.01a0.5 0.5 0 0 0 0 0.023c0 1.284 0.237 2.558 0.699 3.756a0.50002 0.50002 0 1 0 0.933-0.36 9.45 9.45 0 0 1-0.633-3.426 0.5 0.5 0 0 0 0-9e-3 5.5 5.5 0 0 1 5.5-5.5 5.5 5.5 0 0 1 5.5 5.5 1.5 1.5 0 0 1-1.5 1.5 1.5 1.5 0 0 1-1.5-1.5 2.5 2.5 0 0 0-2.5-2.5 2.5 2.5 0 0 0-2.499 2.47 2.5 2.5 0 0 0 0 0.03 0.5 0.5 0 0 0 0 6e-3c-0.01 3.556 2.866 6.463 6.424 6.494a0.50002 0.50002 0 1 0 0.01-1 5.471 5.471 0 0 1-5.432-5.491 0.5 0.5 0 0 0 0-9e-3 1.5 1.5 0 0 1 1.5-1.5 1.5 1.5 0 0 1 1.5 1.5 2.5 2.5 0 0 0 2.5 2.5 2.5 2.5 0 0 0 2.5-2.5 6.5 6.5 0 0 0-6.5-6.5zm0 2a4.5 4.5 0 0 0-4.5 4.469 0.5 0.5 0 0 0 0 0.013 4.5 4.5 0 0 0 0 0.018 0.5 0.5 0 0 0 0 6e-3 8.463 8.463 0 0 0 3.529 6.9 0.5 0.5 0 0 0 0.329 0.097 0.5 0.5 0 0 0 0.05-6e-3 0.5 0.5 0 0 0 0.204-0.903 7.465 7.465 0 0 1-3.112-6.085 0.5 0.5 0 0 0 0-0.01 3.5 3.5 0 0 1 3.5-3.5 3.5 3.5 0 0 1 3.5 3.5 0.5 0.5 0 0 0 0.5 0.5 0.5 0.5 0 0 0 0.5-0.5 0.5 0.5 0 0 0 0-0.046 4.5 4.5 0 0 0-4.498-4.453zm-0.01 3.981a0.5 0.5 0 0 0-0.495 0.506v7e-3a0.5 0.5 0 0 0 0 6e-3 0.5 0.5 0 0 0 0 0.053 4.506 4.506 0 0 0 4.457 4.447 0.50002 0.50002 0 1 0 0.01-1 3.492 3.492 0 0 1-3.469-3.5 0.5 0.5 0 0 0 0-0.01 0.5 0.5 0 0 0-0.505-0.508z" fill="#444"/>
</svg>
